# xmcd
#
# Track frame offsets: 
#        150
#        20123
#        36814
#        62361
#        85052
#        105459
#        117648
#        138580
#        164805
#        183148
#        202617
#        218186
#        231131
#        251138
#
# Disc length: 3604 seconds
#
# Revision: 0
# Processed by: cddbd v1.5.1PL0 Copyright (c) Steve Scherf et al.
# Submitted via: ExactAudioCopy v0.95a5
#
DISCID=c10e120e
DTITLE=Various Artist - HASTA SIEMPRE COMANDANTE
DYEAR=1900
DGENRE=MusicaTradicionalCubana
TTITLE0=Hasta Siempre - Trio Raices
TTITLE1=Yo No Te Pido - Grupo Arimao
TTITLE2=Falsaria - Septeto Nabori
TTITLE3=Huellas del Pasado - Sexteto Sugerencia
TTITLE4=A La Loma de Belen - Quinteto Son De La Loma
TTITLE5=Cuidadito Company Gallo - Sexteto Acuarela
TTITLE6=Sabor a Caney - Quinteto Son de La Loma
TTITLE7=Yolanda - Septeto Caribe Son
TTITLE8=Macusa - Cuarteto Acana
TTITLE9=A Toda Cuba Le Gusta - Grupo Tradison
TTITLE10=Chan Chan - Trio Raices
TTITLE11=La Mujer de Antonio - Septepto Caribe Son
TTITLE12=Jacarandosa - Cuarteto Acana
TTITLE13=Olvido - Trio Raices
EXTD=
EXTT0=
EXTT1=
EXTT2=
EXTT3=
EXTT4=
EXTT5=
EXTT6=
EXTT7=
EXTT8=
EXTT9=
EXTT10=
EXTT11=
EXTT12=
EXTT13=
PLAYORDER=
